<?xml version="1.0" encoding="UTF-8"?>
<svg version="1.1" xmlns="http://www.w3.org/2000/svg" width="500" height="500">
<path d="M0 0 C165 0 330 0 500 0 C500 165 500 330 500 500 C335 500 170 500 0 500 C0 335 0 170 0 0 Z " fill="#F3F3F3" transform="translate(0,0)"/>
<path d="M0 0 C7.92 0 15.84 0 24 0 C29.27946701 12.39252136 34.03747521 24.98334849 38.8605957 37.55859375 C39.99265486 40.508449 41.12709359 43.45738098 42.26171875 46.40625 C42.60756516 47.31040649 42.95341156 48.21456299 43.30973816 49.14611816 C43.63380142 49.98799683 43.95786469 50.82987549 44.29174805 51.69726562 C44.71546944 52.80213318 44.71546944 52.80213318 45.14775085 53.92932129 C46.00404985 56.00983978 46.96864784 58.00124978 48 60 C48.61875 58.33952637 48.61875 58.33952637 49.25 56.64550781 C50.82069032 52.43237421 52.39454862 48.22042933 53.96923828 44.00878906 C54.64291854 42.20571305 55.31580413 40.40233988 55.98779297 38.59863281 C60.81022877 25.65686356 65.81726095 12.80177897 71 0 C110.46032479 -3.97046612 110.46032479 -3.97046612 118.62207031 2.35546875 C124.08838684 7.67576708 127.33968163 14.74739643 130.00244141 21.796875 C130.33163574 22.52390625 130.66083008 23.2509375 131 24 C131.66 24 132.32 24 133 24 C133.99673395 22.28871249 134.90745613 20.52720786 135.78125 18.75 C145.1382029 1.32992066 145.1382029 1.32992066 152.30078125 -1.13671875 C159.92413171 -2.12010574 167.46120563 -1.34621328 175 0 C173.79270321 3.26093147 172.49171839 5.96937241 170.41796875 8.7578125 C169.64694824 9.80678711 169.64694824 9.80678711 168.86035156 10.87695312 C168.30831055 11.61880859 167.75626953 12.36066406 167.1875 13.125 C162.26053747 19.84130133 157.44741873 26.62100112 152.75 33.5 C152.18949951 34.31871582 151.62899902 35.13743164 151.05151367 35.98095703 C148.3419721 39.88102046 148.3419721 39.88102046 146 44 C146.32572998 44.45101074 146.65145996 44.90202148 146.98706055 45.36669922 C147.67989136 46.32600342 147.67989136 46.32600342 148.38671875 47.3046875 C148.90669434 48.02462891 149.42666992 48.74457031 149.96240234 49.48632812 C151.12558309 51.09693674 152.28866692 52.70761535 153.45166016 54.31835938 C156.46945065 58.49771145 159.48866412 62.6760162 162.51171875 66.8515625 C163.07608643 67.63160645 163.6404541 68.41165039 164.22192383 69.21533203 C165.28755332 70.68810722 166.35375356 72.16046968 167.4206543 73.63232422 C171.33922024 79.0502282 175.16415057 84.5202151 179 90 C179.33 60.63 179.66 31.26 180 1 C202 1 202 1 206.97265625 5.546875 C208.60742188 8.51879883 208.60742188 8.51879883 210.0625 11.75 C211.23809886 13.9585168 212.41653421 16.16552583 213.59765625 18.37109375 C214.15855957 19.48468262 214.71946289 20.59827148 215.29736328 21.74560547 C217.86793408 26.65895631 220.91039016 31.21455203 224 35.8125 C228.39576118 42.50344287 232.70128897 49.24488267 237 56 C237.33 37.52 237.66 19.04 238 0 C245.26 0 252.52 0 260 0 C260 31.02 260 62.04 260 94 C252.74 94 245.48 94 238 94 C230.33634549 84.59460582 230.33634549 84.59460582 228.15625 80.0703125 C224.76428944 73.38525034 220.72675253 67.20398795 216.625 60.9375 C215.32267776 58.90676839 214.02310604 56.87426969 212.7265625 54.83984375 C212.17564941 53.97738037 211.62473633 53.11491699 211.05712891 52.22631836 C208.03483932 47.48628075 205.01808992 42.74271274 202 38 C201.67 56.48 201.34 74.96 201 94 C193.471875 94.309375 185.94375 94.61875 178.1875 94.9375 C175.83391357 95.07406006 173.48032715 95.21062012 171.05541992 95.35131836 C156.70139465 95.83791076 156.70139465 95.83791076 151.96469116 92.61526489 C148.49027515 89.16296607 146.13057353 85.17702418 143.93380737 80.82785034 C142.74434144 78.4995696 141.3056931 76.39421487 139.80859375 74.25390625 C138.59299462 72.37560332 137.39112289 70.48933046 136.19335938 68.59960938 C135.17760244 67.03371981 134.09539147 65.51125438 133 64 C132.34 64 131.68 64 131 64 C129.24838453 66.3415693 127.61679758 68.69274277 126 71.125 C125.49927979 71.84042969 124.99855957 72.55585938 124.48266602 73.29296875 C122.02264247 76.82810792 119.79530755 80.2768074 117.96484375 84.1796875 C115.91138192 88.22600727 114.08857545 91.75809943 110 94 C101.46769835 95.69890343 92.59736772 94.85728738 84 94 C85.34464188 91.18158981 86.85055736 88.62424088 88.6171875 86.05078125 C89.13587402 85.29345703 89.65456055 84.53613281 90.18896484 83.75585938 C90.74535645 82.94955078 91.30174805 82.14324219 91.875 81.3125 C92.45072754 80.47396484 93.02645508 79.63542969 93.61962891 78.77148438 C97.97975612 72.43684751 102.41784944 66.15966731 106.87353516 59.89208984 C110.77730556 54.37569204 114.446116 48.74892999 118 43 C117.4423999 42.20903931 117.4423999 42.20903931 116.87353516 41.40209961 C115.12208542 38.91525687 113.3731081 36.42669292 111.625 33.9375 C110.67512207 32.58531372 110.67512207 32.58531372 109.70605469 31.20581055 C105.36840842 25.01003411 101.12067872 18.76462021 97.02197266 12.40795898 C95.02069744 9.17254304 95.02069744 9.17254304 92 7 C91.86174805 7.5377002 91.72349609 8.07540039 91.58105469 8.62939453 C89.46521987 16.26364002 86.38424769 23.4192608 83.21862793 30.65933228 C81.54033624 34.49830555 79.88005081 38.34505675 78.21875 42.19140625 C77.70184601 43.38666176 77.70184601 43.38666176 77.17449951 44.60606384 C72.61533158 55.17207224 68.22782554 65.81001136 63.83691406 76.44677734 C63.53442749 77.1772377 63.23194092 77.90769806 62.92028809 78.66029358 C62.35952224 80.01450783 61.80052928 81.36945834 61.24377441 82.72532654 C59.6417613 86.59106912 57.87918141 90.24163717 56 94 C50.39 94 44.78 94 39 94 C29.68307434 71.97094494 20.37411684 49.93843898 11.12103271 27.88247681 C10.3350528 26.00974011 9.54831543 24.13732113 8.76080322 22.26522827 C7.65999987 19.64776707 6.5620435 17.02912969 5.46484375 14.41015625 C5.14171707 13.64331512 4.81859039 12.876474 4.485672 12.08639526 C4.18610092 11.36960602 3.88652985 10.65281677 3.57788086 9.91430664 C3.31986191 9.29946915 3.06184296 8.68463165 2.79600525 8.05116272 C1.76818665 5.40265859 0.89838662 2.69515986 0 0 Z " fill="#040404" transform="translate(162,186)"/>
<path d="M0 0 C1.97129024 1.43131205 3.77441486 2.94348129 5.58203125 4.57421875 C6.46890625 5.25484375 7.35578125 5.93546875 8.26953125 6.63671875 C15.43937667 15.74436023 16.73037793 26.32042127 15.58203125 37.57421875 C14.48445493 43.63787812 11.74312176 48.14780438 8.25390625 53.1484375 C0.34948102 64.61724139 -5.30093325 77.10607674 -8.6796875 90.62109375 C-9.59700211 93.04785198 -10.30622377 94.0428688 -12.41796875 95.57421875 C-15.59765625 96.5234375 -15.59765625 96.5234375 -19.29296875 97.26171875 C-20.50726563 97.51308594 -21.7215625 97.76445312 -22.97265625 98.0234375 C-29.037781 98.99303227 -29.037781 98.99303227 -31.41796875 98.57421875 C-34.37901034 94.97866825 -35.23122943 90.97948024 -36.29296875 86.51171875 C-40.01708966 71.74135435 -46.68710024 57.94249094 -56.03515625 45.890625 C-60.09165996 39.09540833 -59.27419981 28.32169846 -58.41796875 20.57421875 C-55.90047921 11.75736078 -49.03719107 3.62236276 -41.41015625 -1.39453125 C-28.67683079 -7.98589972 -12.28917292 -7.24644283 0 0 Z " fill="#FBB305" transform="translate(143.41796875,183.42578125)"/>
<path d="M0 0 C5.8831549 4.72354571 10.19964024 9.62485664 11.34375 17.30859375 C11.91341738 26.43751357 7.45969692 32.80994894 2.625 40.1875 C-3.86498242 50.20464678 -8.26018112 61.0373307 -11.859375 72.3671875 C-12.23578125 73.23601562 -12.6121875 74.10484375 -13 75 C-14.485 75.495 -14.485 75.495 -16 76 C-16.18433594 75.20980469 -16.36867188 74.41960937 -16.55859375 73.60546875 C-20.2822085 59.12474473 -26.61728194 45.57685776 -35.37109375 33.4453125 C-39.35799408 27.46018154 -39.64608162 22.0261376 -39 15 C-37.21668624 7.53237362 -31.66146843 3.33261899 -25.74609375 -0.984375 C-18.62063614 -5.12893647 -6.88371164 -4.29337524 0 0 Z " fill="#F4F3EF" transform="translate(136,193)"/>
<path d="M0 0 C3.70390021 2.02666238 5.65363011 3.48044516 8 7 C8.43660384 10.30571478 8.71042728 12.81419387 6.94921875 15.75390625 C4.59742923 18.63294061 2.78842434 20.78567017 -0.98828125 21.23828125 C-5.15410332 21.3713075 -7.37869331 21.38831668 -11 19.125 C-14.24520759 15.67696694 -14.52488247 12.95032141 -14.47265625 8.33203125 C-13.74198758 4.72699659 -11.91261179 3.14327648 -9 1.03515625 C-5.75942576 -0.64209409 -3.55902614 -0.64709566 0 0 Z " fill="#111111" transform="translate(369,289)"/>
<path d="M0 0 C5.58879398 1.1177588 6.08027185 1.73460129 9.3125 6.0625 C10.00988281 6.98160156 10.70726562 7.90070313 11.42578125 8.84765625 C11.94527344 9.55792969 12.46476562 10.26820313 13 11 C13.33 7.37 13.66 3.74 14 0 C15.32 0 16.64 0 18 0 C18 6.6 18 13.2 18 20 C12.41120602 18.8822412 11.91972815 18.26539871 8.6875 13.9375 C7.99011719 13.01839844 7.29273438 12.09929687 6.57421875 11.15234375 C6.05472656 10.44207031 5.53523438 9.73179687 5 9 C4.67 12.63 4.34 16.26 4 20 C2.68 20 1.36 20 0 20 C0 13.4 0 6.8 0 0 Z " fill="#040404" transform="translate(404,290)"/>
<path d="M0 0 C1 1 1 1 1.375 3.375 C1.25125 4.24125 1.1275 5.1075 1 6 C-6.68271599 11.69777636 -17.71724726 12.48014238 -27 12 C-27.3125 9.1875 -27.3125 9.1875 -27 6 C-23.10219352 2.92991304 -18.84411045 2.1249742 -14.0625 1.3125 C-13.37220703 1.18294922 -12.68191406 1.05339844 -11.97070312 0.91992188 C-7.9416895 0.1981365 -4.09137707 -0.23111596 0 0 Z " fill="#14171B" transform="translate(136,284)"/>
<path d="M0 0 C1.08667969 0.02707031 2.17335938 0.05414063 3.29296875 0.08203125 C4.54013672 0.13423828 4.54013672 0.13423828 5.8125 0.1875 C6.1425 0.8475 6.4725 1.5075 6.8125 2.1875 C6.4825 2.8475 6.1525 3.5075 5.8125 4.1875 C2.8425 4.1875 -0.1275 4.1875 -3.1875 4.1875 C-3.5175 5.1775 -3.8475 6.1675 -4.1875 7.1875 C-3.57261719 7.29707031 -2.95773437 7.40664063 -2.32421875 7.51953125 C-1.51597656 7.67808594 -0.70773437 7.83664062 0.125 8 C0.92550781 8.15082031 1.72601563 8.30164063 2.55078125 8.45703125 C5.08477149 9.2754357 6.21176233 10.07577766 7.8125 12.1875 C7.67363192 14.9648615 7.25396065 16.60443876 5.5703125 18.828125 C3.21980893 20.64584776 1.75181527 20.52497962 -1.1875 20.4375 C-2.05375 20.42203125 -2.92 20.4065625 -3.8125 20.390625 C-6.1875 20.1875 -6.1875 20.1875 -9.1875 19.1875 C-8.8575 17.8675 -8.5275 16.5475 -8.1875 15.1875 C-4.5575 15.5175 -0.9275 15.8475 2.8125 16.1875 C2.8125 15.1975 2.8125 14.2075 2.8125 13.1875 C1.89017578 13.02314453 1.89017578 13.02314453 0.94921875 12.85546875 C0.14097656 12.69691406 -0.66726563 12.53835938 -1.5 12.375 C-2.70076172 12.14876953 -2.70076172 12.14876953 -3.92578125 11.91796875 C-6.46323287 11.09844638 -7.56097026 10.27875253 -9.1875 8.1875 C-9.6064057 5.39479532 -9.67547756 3.89347441 -8.05078125 1.54296875 C-5.35650532 -0.41701815 -3.28594724 -0.1059983 0 0 Z " fill="#101010" transform="translate(289.1875,289.8125)"/>
<path d="M0 0 C1.65 0 3.3 0 5 0 C6.65 3.96 8.3 7.92 10 12 C11.98 8.04 13.96 4.08 16 0 C17.65 0 19.3 0 21 0 C18.36 6.6 15.72 13.2 13 20 C11.35 20 9.7 20 8 20 C7.03912864 18.10545176 6.08141031 16.20930419 5.125 14.3125 C4.59132812 13.25675781 4.05765625 12.20101563 3.5078125 11.11328125 C0 3.87046632 0 3.87046632 0 0 Z " fill="#0E0E0E" transform="translate(202,290)"/>
<path d="M0 0 C0.75 1.6875 0.75 1.6875 1 4 C-0.78517826 6.64698845 -2.12021246 8.56010623 -5 10 C-9.5134952 10.53151198 -12.89138503 10.86526046 -16.5625 8 C-17.2740625 7.01 -17.2740625 7.01 -18 6 C-17.67 5.01 -17.34 4.02 -17 3 C-14.453125 2.05078125 -14.453125 2.05078125 -11.25 1.3125 C-9.67992188 0.93544922 -9.67992188 0.93544922 -8.078125 0.55078125 C-5.29722504 0.05318367 -2.81457462 -0.10945568 0 0 Z " fill="#191A1E" transform="translate(132,298)"/>
<path d="M0 0 C1.8125 1.1875 1.8125 1.1875 3 3 C3.39365568 6.14924548 3.52854531 8.11909116 1.875 10.875 C-0.85252465 12.51151479 -2.87973093 12.32502803 -6 12 C-6.99 11.34 -7.98 10.68 -9 10 C-9.33427818 6.99149637 -9.5325554 4.89946828 -9 2 C-6.22677943 -1.38949181 -4.00593654 -1.4380285 0 0 Z " fill="#EBEBEB" transform="translate(369,294)"/>
<path d="M0 0 C0 1.32 0 2.64 0 4 C3.465 3.505 3.465 3.505 7 3 C5.6875 4.9375 5.6875 4.9375 3 7 C-0.64527669 7.6886842 -4.3001589 7.81102962 -8 8 C-9.73057204 8.17405179 -11.45999886 8.3602293 -13.1875 8.5625 C-14.445625 8.706875 -15.70375 8.85125 -17 9 C-17 8.01 -17 7.02 -17 6 C-18.32 5.34 -19.64 4.68 -21 4 C-17.87569239 3.33006007 -14.75044614 2.66460636 -11.625 2 C-10.73554687 1.80921875 -9.84609375 1.6184375 -8.9296875 1.421875 C-8.07890625 1.24140625 -7.228125 1.0609375 -6.3515625 0.875 C-5.56604004 0.70742188 -4.78051758 0.53984375 -3.97119141 0.3671875 C-2 0 -2 0 0 0 Z " fill="#ECEAEC" transform="translate(133,278)"/>
<path d="M0 0 C0.82693359 0.06123047 1.65386719 0.12246094 2.50585938 0.18554688 C4.52596564 0.33734677 6.54446713 0.51025479 8.5625 0.6875 C8.5625 1.6775 8.5625 2.6675 8.5625 3.6875 C9.18125 3.749375 9.8 3.81125 10.4375 3.875 C12.5625 4.6875 12.5625 4.6875 13.8125 7.25 C14.06 8.054375 14.3075 8.85875 14.5625 9.6875 C13.5415625 8.759375 13.5415625 8.759375 12.5 7.8125 C5.87477615 3.01978487 -1.49638164 2.98522423 -9.4375 3.6875 C-14.22863572 4.87876242 -17.67862527 7.57300379 -21.4375 10.6875 C-22.0975 10.6875 -22.7575 10.6875 -23.4375 10.6875 C-23.72625 11.409375 -24.015 12.13125 -24.3125 12.875 C-25.35416667 15.47916667 -26.39583333 18.08333333 -27.4375 20.6875 C-27.7675 20.6875 -28.0975 20.6875 -28.4375 20.6875 C-28.4375 18.7075 -28.4375 16.7275 -28.4375 14.6875 C-27.7775 14.6875 -27.1175 14.6875 -26.4375 14.6875 C-26.31375 13.90375 -26.19 13.12 -26.0625 12.3125 C-25.4375 9.6875 -25.4375 9.6875 -23.4375 7.6875 C-22.4475 7.6875 -21.4575 7.6875 -20.4375 7.6875 C-20.4375 7.0275 -20.4375 6.3675 -20.4375 5.6875 C-19.4475 5.6875 -18.4575 5.6875 -17.4375 5.6875 C-17.1075 4.6975 -16.7775 3.7075 -16.4375 2.6875 C-10.80268524 -0.5482609 -6.35716831 -0.57885578 0 0 Z " fill="#EFC931" transform="translate(125.4375,187.3125)"/>
<path d="M0 0 C0.33 0.99 0.66 1.98 1 3 C-0.26940487 5.46413887 -1.58086826 7.73154542 -3.0625 10.0625 C-3.47862549 10.73861328 -3.89475098 11.41472656 -4.32348633 12.11132812 C-6.09587354 14.98772989 -7.89850098 17.84224021 -9.7265625 20.68359375 C-15.96916961 30.58163122 -19.97704473 41.7302106 -23 53 C-25.2149284 46.3552148 -21.80091389 39.08894324 -19 33 C-18.62691369 31.67723944 -18.26953585 30.34767923 -18 29 C-17.34 29 -16.68 29 -16 29 C-16 28.01 -16 27.02 -16 26 C-15.34 26 -14.68 26 -14 26 C-14 24.68 -14 23.36 -14 22 C-13.34 22 -12.68 22 -12 22 C-11.34 18.7 -10.68 15.4 -10 12 C-8.68 11.67 -7.36 11.34 -6 11 C-6 10.01 -6 9.02 -6 8 C-5.34 8 -4.68 8 -4 8 C-4 7.34 -4 6.68 -4 6 C-3.34 6 -2.68 6 -2 6 C-2 4.68 -2 3.36 -2 2 C-1.34 2 -0.68 2 0 2 C0 1.34 0 0.68 0 0 Z " fill="#EEAC35" transform="translate(157,223)"/>
<path d="M0 0 C1.65 0 3.3 0 5 0 C5 6.6 5 13.2 5 20 C3.35 20 1.7 20 0 20 C0 13.4 0 6.8 0 0 Z " fill="#101010" transform="translate(323,290)"/>
<path d="M0 0 C0.66 0 1.32 0 2 0 C2.02578125 0.70125 2.0515625 1.4025 2.078125 2.125 C2.57409028 10.42114649 4.69431037 15.27680469 9.0078125 22.2421875 C9.36544678 22.81984863 9.72308105 23.39750977 10.09155273 23.99267578 C11.14686464 25.68484222 12.21958977 27.36611088 13.29296875 29.046875 C14.70689228 31.49293035 15.55273571 33.24965838 16 36 C14.35 35.67 12.7 35.34 11 35 C10.67 32.03 10.34 29.06 10 26 C9.34 26 8.68 26 8 26 C7.67386719 25.40832031 7.34773438 24.81664062 7.01171875 24.20703125 C6.35623047 23.02173828 6.35623047 23.02173828 5.6875 21.8125 C5.25824219 21.03519531 4.82898438 20.25789063 4.38671875 19.45703125 C3.02731226 16.96334421 3.02731226 16.96334421 1.34375 14.59375 C-0.30445111 11.41233856 -0.30483354 9.24661742 -0.1875 5.6875 C-0.16042969 4.61886719 -0.13335937 3.55023438 -0.10546875 2.44921875 C-0.07066406 1.64097656 -0.03585938 0.83273438 0 0 Z " fill="#EFBD2C" transform="translate(95,208)"/>
<path d="M0 0 C1.32 0 2.64 0 4 0 C4 6.6 4 13.2 4 20 C2.68 20 1.36 20 0 20 C0 13.4 0 6.8 0 0 Z " fill="#000000" transform="translate(249,290)"/>
<path d="M0 0 C2.86236157 2.50209882 5.46869064 5.16574138 8 8 C7.67 8.66 7.34 9.32 7 10 C6.566875 9.525625 6.13375 9.05125 5.6875 8.5625 C3.97690387 6.76313043 3.97690387 6.76313043 1 6 C0.67 5.01 0.34 4.02 0 3 C-0.99 2.67 -1.98 2.34 -3 2 C-3 1.34 -3 0.68 -3 0 C-10.59 0 -18.18 0 -26 0 C-20.13875987 -5.86124013 -6.58810324 -4.17881755 0 0 Z " fill="#FAF0C8" transform="translate(136,193)"/>
<path d="M0 0 C0.96541545 3.18554592 1.05239684 5.88752707 0.87890625 9.203125 C0.83056641 10.1828125 0.78222656 11.1625 0.73242188 12.171875 C0.67634766 13.18765625 0.62027344 14.2034375 0.5625 15.25 C0.51029297 16.28125 0.45808594 17.3125 0.40429688 18.375 C0.27484366 20.91699039 0.13988672 23.45856593 0 26 C0.66 26 1.32 26 2 26 C2 26.99 2 27.98 2 29 C2.66 29 3.32 29 4 29 C4 30.32 4 31.64 4 33 C4.66 33 5.32 33 6 33 C5.67 34.32 5.34 35.64 5 37 C4.00769913 35.63444834 3.03173673 34.25701755 2.0625 32.875 C1.51722656 32.10929687 0.97195312 31.34359375 0.41015625 30.5546875 C-2.51284386 25.25928011 -2.18234709 19.33758553 -2.1875 13.4375 C-2.19974609 12.69564453 -2.21199219 11.95378906 -2.22460938 11.18945312 C-2.23580706 6.99778665 -1.91889991 3.83021523 0 0 Z " fill="#EEBC36" transform="translate(87,199)"/>
<path d="M0 0 C3.61602623 1.20534208 5.89856388 3.54856688 8.0078125 6.6796875 C10.11455618 11.60648178 9.82944312 16.79186875 9 22 C7.94183647 24.38745792 6.7954132 26.2645569 5.19140625 28.31640625 C3.86379714 30.19247027 3.42672248 31.75848075 3 34 C2.01 34 1.02 34 0 34 C0.87790594 31.65891748 1.76555274 29.40357142 3.0234375 27.23828125 C6.11083542 21.840809 6.9987985 17.17884167 6 11 C4.53326156 6.9493345 2.38076062 3.57114093 0 0 Z " fill="#F1C127" transform="translate(140,197)"/>
<path d="M0 0 C12.10486918 -0.71321651 22.96905328 0.81524069 32.609375 8.6328125 C34 10 34 10 35 12 C34.43410156 11.71125 33.86820313 11.4225 33.28515625 11.125 C30.27527375 9.64321169 27.20063705 8.32944871 24.12109375 7 C22 6 22 6 19 4 C18.05125 4 17.1025 4 16.125 4 C12.78657459 4 11.05702388 3.23736681 8 2 C5.33597622 1.54686698 2.69122279 1.27368367 0 1 C0 0.67 0 0.34 0 0 Z " fill="#EFCA35" transform="translate(115,178)"/>
<path d="M0 0 C0.99451172 -0.00257813 1.98902344 -0.00515625 3.01367188 -0.0078125 C4.55571289 0.00378906 4.55571289 0.00378906 6.12890625 0.015625 C7.15306641 0.00789062 8.17722656 0.00015625 9.23242188 -0.0078125 C14.43752232 0.00566349 18.83004387 0.1643157 23.69140625 2.265625 C23.69140625 1.605625 23.69140625 0.945625 23.69140625 0.265625 C24.35140625 0.595625 25.01140625 0.925625 25.69140625 1.265625 C25.69140625 2.255625 25.69140625 3.245625 25.69140625 4.265625 C26.35140625 4.265625 27.01140625 4.265625 27.69140625 4.265625 C28.18640625 5.750625 28.18640625 5.750625 28.69140625 7.265625 C27.96953125 6.96914062 27.24765625 6.67265625 26.50390625 6.3671875 C13.7446423 1.36980912 1.99119914 1.28050115 -11.30859375 4.265625 C-10.30859375 2.265625 -10.30859375 2.265625 -8.07788086 1.15722656 C-5.21631057 0.23591344 -2.99620395 0.00751668 0 0 Z " fill="#FCEFBF" transform="translate(115.30859375,176.734375)"/>
<path d="M0 0 C0.33 1.32 0.66 2.64 1 4 C0.01 4.495 0.01 4.495 -1 5 C-1.72693904 6.97888961 -2.39816251 8.97954558 -3 11 C-3.66 11 -4.32 11 -5 11 C-4.9175 11.928125 -4.835 12.85625 -4.75 13.8125 C-5 17 -5 17 -6.875 18.875 C-9 20 -9 20 -11 20 C-9.53543172 16.03101997 -7.65225783 12.5137749 -5.5 8.875 C-4.8915625 7.84117187 -4.283125 6.80734375 -3.65625 5.7421875 C-2.48309669 3.79984404 -1.25869124 1.88803686 0 0 Z " fill="#FBE9C0" transform="translate(156,228)"/>
<path d="M0 0 C-0.5625 1.9375 -0.5625 1.9375 -2 4 C-8.15544028 5.60576703 -14.67956572 5.09340543 -21 5 C-21 4.67 -21 4.34 -21 4 C-17.87569239 3.33006007 -14.75044614 2.66460636 -11.625 2 C-10.73554687 1.80921875 -9.84609375 1.6184375 -8.9296875 1.421875 C-8.07890625 1.24140625 -7.228125 1.0609375 -6.3515625 0.875 C-5.56604004 0.70742188 -4.78051758 0.53984375 -3.97119141 0.3671875 C-2 0 -2 0 0 0 Z " fill="#FCE8CD" transform="translate(133,278)"/>
<path d="M0 0 C5.80287521 3.62059735 7.36391339 9.63306053 9 16 C9.52850767 21.00140107 9.31199536 25.98727447 9 31 C8.67 31 8.34 31 8 31 C7.67 25.06 7.34 19.12 7 13 C6.34 13 5.68 13 5 13 C4.34 10.36 3.68 7.72 3 5 C2.34 5 1.68 5 1 5 C0.67 3.35 0.34 1.7 0 0 Z " fill="#EDC036" transform="translate(150,190)"/>
<path d="M0 0 C0.33 0.99 0.66 1.98 1 3 C1.639375 3.12375 2.27875 3.2475 2.9375 3.375 C3.9584375 3.684375 3.9584375 3.684375 5 4 C6.25 6.5625 6.25 6.5625 7 9 C6.319375 8.38125 5.63875 7.7625 4.9375 7.125 C-2.38441802 1.82829335 -10.293652 2.78264318 -19 3 C-18.67 2.34 -18.34 1.68 -18 1 C-12.06 0.67 -6.12 0.34 0 0 Z " fill="#F1CA35" transform="translate(133,188)"/>
<path d="M0 0 C1.76787309 2.65180963 2.46298552 4.18072378 3.25390625 7.16015625 C3.46853516 7.95357422 3.68316406 8.74699219 3.90429688 9.56445312 C4.12150391 10.38880859 4.33871094 11.21316406 4.5625 12.0625 C4.99951081 13.69969794 5.43823296 15.33644032 5.87890625 16.97265625 C6.16616577 18.05945679 6.16616577 18.05945679 6.45922852 19.16821289 C6.96315955 21.07271071 6.96315955 21.07271071 8 23 C5 22 5 22 3.875 20.375 C2.73814102 17.28923992 2.44153305 14.25630624 2 11 C1.649375 9.783125 1.29875 8.56625 0.9375 7.3125 C0 4 0 4 0 0 Z " fill="#FCE5BF" transform="translate(104,259)"/>
<path d="M0 0 C2.62429743 3.13709118 3.95420147 6.13194468 5.25 10 C5.60578125 11.03125 5.9615625 12.0625 6.328125 13.125 C6.9907779 15.96053799 7.00586171 17.31770211 6 20 C3.49377946 17.49377946 3.2522891 15.67979285 2.4375 12.25 C2.18871094 11.22390625 1.93992187 10.1978125 1.68359375 9.140625 C1.0226356 6.1039944 0.48249238 3.06957054 0 0 Z " fill="#EBAB41" transform="translate(113,248)"/>
<path d="M0 0 C4.06124391 1.35374797 4.60315649 3.26258828 6.6875 6.9375 C7.31011719 8.01902344 7.93273437 9.10054687 8.57421875 10.21484375 C10 13 10 13 10 15 C8.35 14.67 6.7 14.34 5 14 C4.67 11.03 4.34 8.06 4 5 C3.34 5 2.68 5 2 5 C1.34 3.35 0.68 1.7 0 0 Z " fill="#EEB130" transform="translate(101,229)"/>
<path d="M0 0 C0.33 0.99 0.66 1.98 1 3 C1.66 3 2.32 3 3 3 C3.66 6.3 4.32 9.6 5 13 C7.64 12.67 10.28 12.34 13 12 C9.90428591 13.83449724 7.59379371 14.6450399 4 14 C0.38359454 9.99612253 0.32564357 5.15415165 0 0 Z " fill="#EB9E2F" transform="translate(108,268)"/>
<path d="M0 0 C-0.33 0.99 -0.66 1.98 -1 3 C-0.34 3.66 0.32 4.32 1 5 C-1.64 5 -4.28 5 -7 5 C-7 4.34 -7 3.68 -7 3 C-9.97 2.505 -9.97 2.505 -13 2 C-13 1.67 -13 1.34 -13 1 C-8.62426048 0.40667939 -4.42471556 -0.13827236 0 0 Z " fill="#D5D6D5" transform="translate(123,295)"/>
<path d="M0 0 C1.65 0 3.3 0 5 0 C4.67 3.3 4.34 6.6 4 10 C4.66 10 5.32 10 6 10 C5.67 10.99 5.34 11.98 5 13 C4.34 13 3.68 13 3 13 C2.01 8.71 1.02 4.42 0 0 Z " fill="#FAEBD2" transform="translate(117,256)"/>
<path d="M0 0 C0.99 0.33 1.98 0.66 3 1 C3 1.99 3 2.98 3 4 C3.66 4 4.32 4 5 4 C5.78688445 6.77723925 6.11949924 9.22610077 6.09765625 12.109375 C6.09282227 13.24052734 6.09282227 13.24052734 6.08789062 14.39453125 C6.07951172 15.17183594 6.07113281 15.94914063 6.0625 16.75 C6.05798828 17.54277344 6.05347656 18.33554688 6.04882812 19.15234375 C6.03708565 21.10159508 6.01915146 23.05080738 6 25 C5.67 25 5.34 25 5 25 C4.97421875 24.11699219 4.9484375 23.23398438 4.921875 22.32421875 C4.53749013 14.19098428 3.27378111 7.46117556 0 0 Z " fill="#FAE5A9" transform="translate(154,195)"/>
<path d="M0 0 C0.66 0 1.32 0 2 0 C1.74204721 3.4823626 0.78438795 4.18808711 -1.9375 6.5625 C-2.948125 7.366875 -3.95875 8.17125 -5 9 C-5.99 10.485 -5.99 10.485 -7 12 C-7.66 11.67 -8.32 11.34 -9 11 C-7.87672229 9.54033966 -6.75131706 8.08231636 -5.625 6.625 C-4.99851562 5.81289062 -4.37203125 5.00078125 -3.7265625 4.1640625 C-2 2 -2 2 0 0 Z " fill="#EDCB41" transform="translate(97,186)"/>
<path d="M0 0 C0 0.66 0 1.32 0 2 C-4.455 2.495 -4.455 2.495 -9 3 C-9 3.99 -9 4.98 -9 6 C-10.98 6.33 -12.96 6.66 -15 7 C-10.40630772 1.86587333 -6.91151486 0 0 0 Z " fill="#EFCA43" transform="translate(114,179)"/>
<path d="M0 0 C0.33 0 0.66 0 1 0 C1.28211913 4.89006497 1.20444268 7.28284649 -2 11 C-2.70514846 13.14733927 -2.70514846 13.14733927 -3 15 C-3.66 15 -4.32 15 -5 15 C-3.78623966 9.67812773 -2.27376292 4.96093728 0 0 Z " fill="#ECAA41" transform="translate(128,252)"/>
<path d="M0 0 C3.21524305 1.40844718 5.32183868 3.10344786 7.75 5.625 C8.67039063 6.57246094 8.67039063 6.57246094 9.609375 7.5390625 C10.29773438 8.26222656 10.29773438 8.26222656 11 9 C10.67 9.66 10.34 10.32 10 11 C9.566875 10.525625 9.13375 10.05125 8.6875 9.5625 C6.97690387 7.76313043 6.97690387 7.76313043 4 7 C3.67 6.01 3.34 5.02 3 4 C2.01 3.67 1.02 3.34 0 3 C0 2.01 0 1.02 0 0 Z " fill="#FAEBB3" transform="translate(133,192)"/>
<path d="M0 0 C2.64465038 3.1254959 3.84414715 6.08788267 5 10 C2.69 9.34 0.38 8.68 -2 8 C-1.34 5.36 -0.68 2.72 0 0 Z " fill="#F9EDD8" transform="translate(99,248)"/>
<path d="M0 0 C1.63001953 0.15275391 1.63001953 0.15275391 3.29296875 0.30859375 C4.12441406 0.39238281 4.95585938 0.47617188 5.8125 0.5625 C5.8125 0.8925 5.8125 1.2225 5.8125 1.5625 C4.42224609 1.65337891 4.42224609 1.65337891 3.00390625 1.74609375 C1.80636719 1.82988281 0.60882813 1.91367188 -0.625 2 C-1.81996094 2.08121094 -3.01492187 2.16242188 -4.24609375 2.24609375 C-7.07320244 2.23906114 -7.07320244 2.23906114 -8.1875 3.5625 C-9.85367115 3.60313832 -11.52138095 3.605221 -13.1875 3.5625 C-8.61833146 -0.06132333 -5.77277868 -0.558656 0 0 Z " fill="#F7C714" transform="translate(122.1875,187.4375)"/>
<path d="M0 0 C1.231394 2.46278801 1.07159196 4.2795055 1 7 C-2.08809695 8.76462683 -3.23312136 9 -7 9 C-6.67 8.01 -6.34 7.02 -6 6 C-4.35 5.67 -2.7 5.34 -1 5 C-0.67 3.35 -0.34 1.7 0 0 Z " fill="#F69B11" transform="translate(126,262)"/>
<path d="M0 0 C0.25 2.3125 0.25 2.3125 0 5 C-2.04424538 6.97610386 -3.1176825 8 -6 8 C-3.18918919 0 -3.18918919 0 0 0 Z " fill="#F9EED8" transform="translate(151,240)"/>
<path d="M0 0 C0.5859375 1.84375 0.5859375 1.84375 1 4 C-0.375 6.5 -0.375 6.5 -2 9 C-2.69579454 11.19130534 -2.69579454 11.19130534 -3 13 C-3.99 13 -4.98 13 -6 13 C-4.31326082 8.50202887 -2.18326108 4.27113698 0 0 Z " fill="#ECBE46" transform="translate(146,218)"/>
<path d="M0 0 C2.97 0.33 5.94 0.66 9 1 C7.02 1.99 7.02 1.99 5 3 C4.67 3.33 4.34 3.66 4 4 C2.33382885 4.04063832 0.66611905 4.042721 -1 4 C-0.67 2.68 -0.34 1.36 0 0 Z " fill="#292929" transform="translate(281,305)"/>
<path d="M0 0 C4.19813062 3.74427866 6.07776117 6.8403063 8 12 C5.21692523 10.97953925 4.1956833 10.4022379 2.875 7.6875 C2.58625 6.800625 2.2975 5.91375 2 5 C1.62875 4.071875 1.2575 3.14375 0.875 2.1875 C0.58625 1.465625 0.2975 0.74375 0 0 Z " fill="#FAE8C2" transform="translate(89,232)"/>
<path d="M0 0 C0.66 0.33 1.32 0.66 2 1 C0.35 3.64 -1.3 6.28 -3 9 C-3.66 7.68 -4.32 6.36 -5 5 C-4.01 3.68 -3.02 2.36 -2 1 C-1.34 1.33 -0.68 1.66 0 2 C0 1.34 0 0.68 0 0 Z " fill="#F8F2D9" transform="translate(141,225)"/>
<path d="M0 0 C0.33 0.99 0.66 1.98 1 3 C0.525625 3.391875 0.05125 3.78375 -0.4375 4.1875 C-2.3672747 6.42603865 -2.4968009 8.12457656 -3 11 C-3.66 11.99 -4.32 12.98 -5 14 C-4.64989059 4.82713348 -4.64989059 4.82713348 -1.9375 1.375 C-1.298125 0.92125 -0.65875 0.4675 0 0 Z " fill="#F7C511" transform="translate(92,194)"/>
<path d="M0 0 C0.33 0.66 0.66 1.32 1 2 C1.66 2.33 2.32 2.66 3 3 C1.02 5.31 -0.96 7.62 -3 10 C-3 6.13304322 -1.58090029 3.4911548 0 0 Z " fill="#FCF2D6" transform="translate(93,185)"/>
<path d="M0 0 C0 0.66 0 1.32 0 2 C-7.625 4.125 -7.625 4.125 -11 3 C-7.25593545 0.50395696 -4.45848315 0 0 0 Z " fill="#E99E30" transform="translate(133,276)"/>
<path d="M0 0 C0.99 0 1.98 0 3 0 C2.50168276 3.68754757 1.89932357 5.60490662 -1 8 C-1.04241723 5.66705225 -1.04092937 3.33297433 -1 1 C-0.67 0.67 -0.34 0.34 0 0 Z " fill="#F0AF24" transform="translate(148,234)"/>
<path d="M0 0 C4 2 4 2 5.3125 3.875 C6 6 6 6 5 10 C3.35 6.7 1.7 3.4 0 0 Z " fill="#F0B036" transform="translate(93,236)"/>
<path d="M0 0 C2.74146784 2.74146784 4.21293716 5.54912004 6 9 C5.67 9.66 5.34 10.32 5 11 C1.62668646 8.75112431 1.1641821 7.7612037 0 4 C0 2.68 0 1.36 0 0 Z " fill="#EDBD4B" transform="translate(97,219)"/>
<path d="M0 0 C0.33 1.32 0.66 2.64 1 4 C1.66 4 2.32 4 3 4 C3.66 6.64 4.32 9.28 5 12 C2.69857565 10.21825212 1.19965609 8.83695835 0.51171875 5.953125 C0.27676898 3.9753389 0.13248542 1.98728128 0 0 Z " fill="#FCF0D4" transform="translate(98,216)"/>
<path d="M0 0 C0.66 0 1.32 0 2 0 C1.21681311 3.91593446 -0.39179858 7.36406635 -2 11 C-2.33 11 -2.66 11 -3 11 C-3 9.02 -3 7.04 -3 5 C-2.34 5 -1.68 5 -1 5 C-0.67 3.35 -0.34 1.7 0 0 Z " fill="#F3C225" transform="translate(100,197)"/>
<path d="M0 0 C0.99 0.33 1.98 0.66 3 1 C2.67 2.32 2.34 3.64 2 5 C0.35 4.67 -1.3 4.34 -3 4 C-2.67 3.34 -2.34 2.68 -2 2 C-1.34 2 -0.68 2 0 2 C0 1.34 0 0.68 0 0 Z " fill="#080B11" transform="translate(130,285)"/>
<path d="M0 0 C1.33332095 2.6666419 0.67102033 4.16680303 0 7 C-1.32 7.33 -2.64 7.66 -4 8 C-2.87548273 5.0280615 -1.77706209 2.66559313 0 0 Z " fill="#EDB845" transform="translate(139,231)"/>
<path d="M0 0 C0.33 0.66 0.66 1.32 1 2 C2.65 2 4.3 2 6 2 C4.71034824 3.37562854 3.37310707 4.70766393 2 6 C1.34 6 0.68 6 0 6 C-1.125 2.25 -1.125 2.25 0 0 Z " fill="#F8F1D9" transform="translate(97,180)"/>
<path d="M0 0 C0.66 0.33 1.32 0.66 2 1 C2 1.99 2 2.98 2 4 C2.66 4 3.32 4 4 4 C4.33 4.99 4.66 5.98 5 7 C1.34683329 5.75023244 0.21934164 5.32901247 -2 2 C-1.34 2 -0.68 2 0 2 C0 1.34 0 0.68 0 0 Z " fill="#F8F1D3" transform="translate(139,177)"/>
<path d="M0 0 C3.92300495 2.35380297 4.83857315 4.64464931 6 9 C5.01 8.34 4.02 7.68 3 7 C3 6.34 3 5.68 3 5 C2.34 5 1.68 5 1 5 C0.67 3.35 0.34 1.7 0 0 Z " fill="#EECA4B" transform="translate(150,190)"/>
</svg>
